<mxfile host="app.diagrams.net" modified="2023-05-01T14:12:50.808Z" agent="Mozilla/5.0 (Windows NT 10.0; Win64; x64) AppleWebKit/537.36 (KHTML, like Gecko) Chrome/112.0.0.0 Safari/537.36" etag="7Sm1fsRT9SZTz4L8BPXH" version="21.2.3" type="github">
  <diagram id="C5RBs43oDa-KdzZeNtuy" name="Page-1">
    <mxGraphModel dx="1434" dy="764" grid="1" gridSize="10" guides="1" tooltips="1" connect="1" arrows="1" fold="1" page="1" pageScale="1" pageWidth="827" pageHeight="1169" math="0" shadow="0">
      <root>
        <mxCell id="WIyWlLk6GJQsqaUBKTNV-0" />
        <mxCell id="WIyWlLk6GJQsqaUBKTNV-1" parent="WIyWlLk6GJQsqaUBKTNV-0" />
        <mxCell id="hgT3ovTJ3lAhuqHBjHq7-3" value="" style="edgeStyle=orthogonalEdgeStyle;rounded=0;orthogonalLoop=1;jettySize=auto;html=1;" edge="1" parent="WIyWlLk6GJQsqaUBKTNV-1" source="hgT3ovTJ3lAhuqHBjHq7-1" target="hgT3ovTJ3lAhuqHBjHq7-2">
          <mxGeometry relative="1" as="geometry" />
        </mxCell>
        <mxCell id="hgT3ovTJ3lAhuqHBjHq7-1" value="Start" style="ellipse;whiteSpace=wrap;html=1;" vertex="1" parent="WIyWlLk6GJQsqaUBKTNV-1">
          <mxGeometry x="280" y="10" width="120" height="30" as="geometry" />
        </mxCell>
        <mxCell id="hgT3ovTJ3lAhuqHBjHq7-5" value="" style="edgeStyle=orthogonalEdgeStyle;rounded=0;orthogonalLoop=1;jettySize=auto;html=1;" edge="1" parent="WIyWlLk6GJQsqaUBKTNV-1" source="hgT3ovTJ3lAhuqHBjHq7-2" target="hgT3ovTJ3lAhuqHBjHq7-4">
          <mxGeometry relative="1" as="geometry" />
        </mxCell>
        <mxCell id="hgT3ovTJ3lAhuqHBjHq7-2" value="string array" style="rounded=0;whiteSpace=wrap;html=1;" vertex="1" parent="WIyWlLk6GJQsqaUBKTNV-1">
          <mxGeometry x="280" y="60" width="120" height="30" as="geometry" />
        </mxCell>
        <mxCell id="hgT3ovTJ3lAhuqHBjHq7-4" value="count = 0&lt;br&gt;i = 0" style="rounded=0;whiteSpace=wrap;html=1;" vertex="1" parent="WIyWlLk6GJQsqaUBKTNV-1">
          <mxGeometry x="280" y="120" width="120" height="50" as="geometry" />
        </mxCell>
      </root>
    </mxGraphModel>
  </diagram>
</mxfile>
